<svg width="27" height="37" viewBox="0 0 27 37" fill="none" xmlns="http://www.w3.org/2000/svg">
<path d="M13.4947 37C13.2167 36.7307 12.8856 36.4971 12.6665 36.1854C10.4802 33.0734 8.27657 29.9711 6.14917 26.8177C4.38954 24.2115 2.85383 21.4712 1.79786 18.4925C1.13956 16.6315 0.723544 14.7251 0.753467 12.7367C0.849991 7.1557 4.67911 2.12678 10.0603 0.55247C17.1867 -1.53149 24.5168 2.60651 26.4009 9.77729C27.1191 12.5099 26.843 15.1923 25.9888 17.8429C25.0554 20.7386 23.651 23.4113 21.9801 25.9345C20.039 28.863 17.9966 31.7259 15.9956 34.6168C15.6327 35.1419 15.291 35.6834 14.9001 36.1863C14.6636 36.4885 14.3499 36.7307 14.07 37H13.4947ZM13.8364 34.0589C16.1307 30.67 18.4 27.3814 20.5979 24.0445C21.8573 22.1333 22.8875 20.0807 23.6674 17.9288C24.4058 15.8921 24.8411 13.8101 24.5564 11.6296C23.7986 5.82656 18.6037 1.69435 12.7447 2.23296C8.37888 2.63064 4.60478 5.73389 3.3712 9.91918C2.63569 12.4182 2.87893 14.8689 3.68201 17.2994C4.54494 19.9056 5.81134 22.3322 7.32098 24.614C9.20127 27.4547 11.1771 30.2317 13.1124 33.0358C13.3229 33.3408 13.54 33.641 13.8354 34.0589H13.8364Z" fill="#DEB765"/>
<path d="M20.2984 13.0186C20.2997 14.3079 19.9185 15.5685 19.2031 16.641C18.4876 17.7135 17.4701 18.5497 16.2792 19.0436C15.0883 19.5376 13.7777 19.6671 12.5132 19.4159C11.2487 19.1646 10.0871 18.5438 9.17555 17.6321C8.26399 16.7204 7.6434 15.5588 7.39233 14.2942C7.14125 13.0297 7.27099 11.7191 7.76511 10.5283C8.25923 9.33749 9.09552 8.32006 10.1681 7.60477C11.2407 6.88948 12.5015 6.50849 13.7907 6.51001C15.5158 6.51333 17.1692 7.20016 18.389 8.42007C19.6087 9.63999 20.2953 11.2936 20.2984 13.0186ZM13.7839 17.3468C14.6406 17.3451 15.4775 17.0896 16.189 16.6126C16.9005 16.1356 17.4548 15.4585 17.7818 14.6668C18.1088 13.875 18.194 13.0041 18.0264 12.1641C17.8589 11.324 17.4462 10.5524 16.8405 9.94666C16.2348 9.34093 15.4631 8.92825 14.6231 8.76071C13.783 8.59317 12.9121 8.67829 12.1204 9.00531C11.3286 9.33233 10.6515 9.88659 10.1745 10.5981C9.69754 11.3097 9.44206 12.1466 9.44034 13.0032C9.4434 14.1543 9.902 15.2573 10.7159 16.0712C11.5298 16.8851 12.6329 17.3437 13.7839 17.3468Z" fill="#DEB765"/>
</svg>
