<svg width="37" height="29" viewBox="0 0 37 29" fill="none" xmlns="http://www.w3.org/2000/svg">
<path d="M7.26042 28.3504V26.517C7.26042 25.8156 6.8332 25.3564 6.09981 25.3564C5.73312 25.3564 5.33438 25.4774 5.06025 25.8762C4.84664 25.5415 4.54046 25.3564 4.0812 25.3564C3.77503 25.3564 3.46886 25.449 3.22677 25.7836V25.4169H2.58594V28.3504H3.22677V26.7306C3.22677 26.2108 3.5009 25.9652 3.92812 25.9652C4.35534 25.9652 4.56895 26.2393 4.56895 26.7306V28.3504H5.20977V26.7306C5.20977 26.2108 5.51595 25.9652 5.91112 25.9652C6.33834 25.9652 6.55195 26.2393 6.55195 26.7306V28.3504H7.26042ZM16.766 25.4169H15.7265V24.5305H15.0856V25.4169H14.5053V25.9972H15.0856V27.3429C15.0856 28.0158 15.3598 28.4109 16.0932 28.4109C16.3673 28.4109 16.6735 28.3184 16.8871 28.1973L16.702 27.6455C16.5168 27.7665 16.3032 27.7986 16.1501 27.7986C15.844 27.7986 15.7229 27.6135 15.7229 27.3109V25.9972H16.7625V25.4169H16.766ZM22.206 25.3528C21.8393 25.3528 21.5936 25.538 21.4405 25.78V25.4134H20.7997V28.3468H21.4405V26.695C21.4405 26.2073 21.6541 25.9296 22.0529 25.9296C22.1739 25.9296 22.327 25.9616 22.4516 25.9901L22.6367 25.3778C22.5086 25.3528 22.327 25.3528 22.206 25.3528ZM13.9856 25.659C13.6794 25.4454 13.2522 25.3528 12.7929 25.3528C12.0595 25.3528 11.5718 25.7195 11.5718 26.2998C11.5718 26.7875 11.9385 27.0652 12.5793 27.1542L12.8855 27.1863C13.2201 27.2468 13.4053 27.3393 13.4053 27.4924C13.4053 27.706 13.1596 27.8591 12.7324 27.8591C12.3052 27.8591 11.967 27.706 11.7533 27.5529L11.4472 28.0407C11.7818 28.2863 12.2411 28.4074 12.7003 28.4074C13.5548 28.4074 14.0461 28.0086 14.0461 27.4604C14.0461 26.9406 13.6473 26.6665 13.0386 26.5739L12.7324 26.5419C12.4583 26.5099 12.2446 26.4493 12.2446 26.2678C12.2446 26.0542 12.4583 25.9331 12.7965 25.9331C13.1632 25.9331 13.5299 26.0862 13.715 26.1788L13.9856 25.659ZM31.0352 25.3528C30.6685 25.3528 30.4228 25.538 30.2697 25.78V25.4134H29.6289V28.3468H30.2697V26.695C30.2697 26.2073 30.4833 25.9296 30.8821 25.9296C31.0031 25.9296 31.1562 25.9616 31.2808 25.9901L31.4659 25.3849C31.3413 25.3528 31.1598 25.3528 31.0352 25.3528ZM22.8468 26.8837C22.8468 27.7701 23.4591 28.4109 24.4061 28.4109C24.8334 28.4109 25.1395 28.3184 25.4457 28.0763L25.1395 27.5565C24.8939 27.7416 24.6518 27.8306 24.3741 27.8306C23.8543 27.8306 23.4876 27.4639 23.4876 26.8837C23.4876 26.3319 23.8543 25.9652 24.3741 25.9367C24.6482 25.9367 24.8939 26.0292 25.1395 26.2108L25.4457 25.691C25.1395 25.4454 24.8334 25.3564 24.4061 25.3564C23.4591 25.3528 22.8468 25.9972 22.8468 26.8837ZM28.7745 26.8837V25.4169H28.1336V25.7836C27.92 25.5095 27.6138 25.3564 27.2151 25.3564C26.3891 25.3564 25.7483 25.9972 25.7483 26.8837C25.7483 27.7701 26.3891 28.4109 27.2151 28.4109C27.6423 28.4109 27.9485 28.2578 28.1336 27.9837V28.3504H28.7745V26.8837ZM26.4212 26.8837C26.4212 26.3639 26.7558 25.9367 27.3077 25.9367C27.8275 25.9367 28.1941 26.3354 28.1941 26.8837C28.1941 27.4034 27.8275 27.8306 27.3077 27.8306C26.7594 27.7986 26.4212 27.3999 26.4212 26.8837ZM18.7526 25.3528C17.8982 25.3528 17.2858 25.9652 17.2858 26.8801C17.2858 27.7986 17.8982 28.4074 18.7847 28.4074C19.2119 28.4074 19.6391 28.2863 19.9773 28.0086L19.6711 27.5494C19.4255 27.7345 19.1193 27.8556 18.8167 27.8556C18.418 27.8556 18.0228 27.6704 17.9302 27.1542H20.0984C20.0984 27.0617 20.0984 27.0011 20.0984 26.9086C20.1268 25.9652 19.575 25.3528 18.7526 25.3528ZM18.7526 25.9046C19.1513 25.9046 19.4255 26.1503 19.486 26.606H17.9587C18.0192 26.2108 18.2934 25.9046 18.7526 25.9046ZM34.6736 26.8837V24.2563H34.0328V25.7836C33.8192 25.5095 33.513 25.3564 33.1143 25.3564C32.2883 25.3564 31.6475 25.9972 31.6475 26.8837C31.6475 27.7701 32.2883 28.4109 33.1143 28.4109C33.5415 28.4109 33.8477 28.2578 34.0328 27.9837V28.3504H34.6736V26.8837ZM32.3204 26.8837C32.3204 26.3639 32.655 25.9367 33.2069 25.9367C33.7266 25.9367 34.0933 26.3354 34.0933 26.8837C34.0933 27.4034 33.7266 27.8306 33.2069 27.8306C32.655 27.7986 32.3204 27.3999 32.3204 26.8837ZM10.8669 26.8837V25.4169H10.226V25.7836C10.0124 25.5095 9.70625 25.3564 9.30751 25.3564C8.48156 25.3564 7.84073 25.9972 7.84073 26.8837C7.84073 27.7701 8.48156 28.4109 9.30751 28.4109C9.73473 28.4109 10.0409 28.2578 10.226 27.9837V28.3504H10.8669V26.8837ZM8.48512 26.8837C8.48512 26.3639 8.81977 25.9367 9.3716 25.9367C9.89138 25.9367 10.2581 26.3354 10.2581 26.8837C10.2581 27.4034 9.89138 27.8306 9.3716 27.8306C8.81977 27.7986 8.48512 27.3999 8.48512 26.8837Z" fill="white"/>
<path d="M23.3982 3.13818H13.7715V20.4329H23.3982V3.13818Z" fill="white" fill-opacity="0.8"/>
<path d="M14.4123 11.7857C14.4123 8.27192 16.0642 5.15333 18.599 3.13834C16.7335 1.67161 14.3803 0.785156 11.8134 0.785156C5.73264 0.785156 0.8125 5.70513 0.8125 11.7857C0.8125 17.8662 5.73264 22.7862 11.8134 22.7862C14.3803 22.7862 16.7335 21.8998 18.599 20.433C16.0607 18.4465 14.4123 15.2994 14.4123 11.7857Z" fill="white"/>
<path d="M36.3862 11.7857C36.3862 17.8662 31.466 22.7862 25.3853 22.7862C22.8184 22.7862 20.4651 21.8998 18.5996 20.433C21.1665 18.4145 22.7864 15.2994 22.7864 11.7857C22.7864 8.27192 21.1344 5.15333 18.5996 3.13834C20.4616 1.67161 22.8148 0.785156 25.3817 0.785156C31.466 0.785156 36.3862 5.73717 36.3862 11.7857Z" fill="white"/>
</svg>
