<svg width="64" height="18" viewBox="0 0 64 18" fill="none" xmlns="http://www.w3.org/2000/svg">
<path fill-rule="evenodd" clip-rule="evenodd" d="M5.9908 0.737311C6.55429 0.73394 8.22895 0.583111 8.93831 2.97718C9.41614 4.58985 10.1773 7.23149 11.2218 10.9021H11.6471C12.7672 7.03228 13.5367 4.39065 13.9555 2.97718C14.6723 0.558172 16.4641 0.737358 17.1809 0.737358L22.7107 0.737365V17.9392H17.0745V7.80186H16.6966L13.5547 17.9392H9.3142L6.17232 7.79434H5.79437V17.9392H0.158203V0.737365L5.9908 0.737311ZM30.8041 0.737365V10.8822H31.2538L35.0756 2.54018C35.8175 0.880088 37.3986 0.737365 37.3986 0.737365H42.8528V17.9392H37.0989V7.79434H36.6493L32.9024 16.1364C32.1605 17.789 30.5044 17.9392 30.5044 17.9392H25.0502V0.737365H30.8041ZM62.7407 8.91179C61.9381 11.1862 59.4176 12.815 56.6271 12.815H50.593V17.9392H45.1214V8.91179H62.7407Z" fill="white"/>
<path fill-rule="evenodd" clip-rule="evenodd" d="M56.8905 0.737793H44.834C45.1209 4.56751 48.419 7.84599 51.8331 7.84599H63.1204C63.7718 4.66305 61.5295 0.737793 56.8905 0.737793Z" fill="white"/>
</svg>
