<svg width="160" height="23" viewBox="0 0 160 23" fill="none" xmlns="http://www.w3.org/2000/svg">
<path d="M72.3389 5.12646H74.9603C75.0405 5.39812 75.0958 5.67649 75.1257 5.95815C75.1096 9.64791 75.1877 13.3423 75.0223 17.0251C74.8569 20.708 72.371 22.948 68.6721 22.8952C66.6043 22.8676 64.679 22.353 62.9421 20.77L64.5274 19.001C66.1104 19.8763 67.6841 20.3312 69.4256 20.1497C70.8478 20.0073 72.371 18.8218 72.0861 16.646C71.7392 16.8436 71.4176 17.0159 71.1051 17.2043C68.8306 18.5828 65.4349 18.0268 63.8519 15.9384C63.381 15.3181 62.9215 14.5324 62.8617 13.7903C62.632 10.9621 62.5814 8.12008 62.4551 5.15633H65.3959C65.4395 5.5469 65.5222 5.94207 65.5268 6.33954C65.5429 7.94777 65.5268 9.53533 65.5383 11.1344C65.5298 11.5524 65.5559 11.9705 65.6164 12.3842C65.9381 14.2084 66.88 15.0654 68.5756 15.1113C70.3745 15.1596 71.6128 14.2888 72.0011 12.5634C72.2018 11.6387 72.3149 10.6972 72.3389 9.7513C72.3825 8.24185 72.3389 6.72781 72.3389 5.12646Z" fill="white"/>
<path d="M32.6445 0.88764C32.9442 0.827378 33.2473 0.785181 33.552 0.761278C35.39 0.761278 37.228 0.708436 39.0499 0.761278C43.0958 0.894532 45.9837 4.4832 45.152 8.28554C44.8591 9.63795 44.1197 10.8525 43.0529 11.7339C41.9861 12.6152 40.6539 13.1122 39.2705 13.1447C38.1378 13.1723 37.0052 13.1447 35.7071 13.1447V17.8224H32.6445V0.88764ZM35.7783 10.181C37.2992 10.0753 38.6777 10.1051 40.0011 9.85472C41.3681 9.5974 42.1676 8.32 42.1469 6.86799C42.1285 5.64573 41.0947 4.15007 39.9459 4.02141C38.6042 3.87207 37.2326 3.98694 35.7898 3.98694L35.7783 10.181Z" fill="white"/>
<path d="M56.7012 6.37823C56.7678 5.93482 56.8183 5.60628 56.885 5.16286H59.6419V17.969H56.9309C56.8505 17.6152 56.7701 17.266 56.6575 16.7697C54.6863 18.1804 52.6346 18.695 50.3509 17.8886C49.0832 17.4356 47.9943 16.5876 47.2447 15.4694C45.4366 12.887 45.7927 9.03642 48.0006 6.73893C50.2085 4.44145 53.1722 4.3082 56.7012 6.37823ZM52.7954 15.3729C54.9183 15.5107 56.6024 13.6222 56.5886 11.5499C56.5901 10.5445 56.1922 9.57965 55.4823 8.86765C54.7725 8.15565 53.8089 7.7548 52.8035 7.75327C51.7981 7.75175 50.8333 8.14968 50.1213 8.85953C49.4093 9.56937 49.0084 10.533 49.0069 11.5384C49.0115 13.6406 50.5876 15.4763 52.7885 15.3729H52.7954Z" fill="white"/>
<path d="M0.842002 0.816406H6.55814C9.47824 3.73651 12.3501 6.60377 15.2357 9.48481L6.73505 17.8936H0.874167L0.71564 17.6868L8.98658 9.41589C6.15838 6.60606 3.41518 3.85598 0.658203 1.10589L0.842002 0.816406Z" fill="white"/>
<path d="M18.1624 17.8913H12.3199L12.1614 17.6822L20.3979 9.42732L12.0879 1.10814L12.2326 0.862305H17.9924L26.6424 9.46868L18.1624 17.8913Z" fill="white"/>
<path d="M124.553 16.9358V22.5279H121.918C121.888 22.1258 121.833 21.726 121.83 21.324C121.83 18.204 121.713 15.0817 121.856 11.9686C122.042 7.94114 123.923 5.64825 127.749 4.97509C129.715 4.62817 132.551 5.57473 133.966 8.00777C135.751 11.0772 135.018 15.4976 131.574 17.3241C129.658 18.3373 127.643 18.4728 125.706 17.2207C125.448 17.0719 125.181 16.9384 124.907 16.8209L124.553 16.9358ZM128.229 15.3804C130.609 15.6469 132.261 13.4459 132.268 11.5252C132.259 10.466 131.829 9.45371 131.074 8.71096C130.319 7.96821 129.3 7.55578 128.24 7.56435C126.113 7.58503 124.59 9.26449 124.528 11.5045C124.493 13.3747 126.118 15.6837 128.236 15.3804H128.229Z" fill="white"/>
<path d="M104.779 12.1889H95.6033C95.1989 13.5857 96.1064 14.9459 97.5699 15.3548C99.5228 15.9085 101.338 15.449 103.24 14.5507L104.743 15.9292C102.705 17.6776 100.557 18.2542 98.1994 17.9969C92.4557 17.3812 91.0014 10.9919 93.9238 7.13441C95.1897 5.46414 98.7278 4.60717 100.467 5.08965C102.951 5.79727 104.398 7.26766 105.034 9.67313C105.241 10.4612 105.347 11.2354 104.779 12.1889ZM102.227 9.94882C102.035 9.10391 101.524 8.36569 100.801 7.88803C100.078 7.41037 99.199 7.23012 98.3465 7.38483C96.8117 7.63985 95.5895 8.88279 95.686 10.0706C96.8232 10.4244 101.331 10.3578 102.227 9.94882Z" fill="white"/>
<path d="M119.385 12.196H110.057C109.772 13.6756 110.677 14.953 112.074 15.3574C113.777 15.8559 115.399 15.5228 116.995 14.8979C117.241 14.8037 117.476 14.6681 117.804 14.5234L119.183 15.9731C117.551 17.5101 115.61 18.0684 113.517 18.0408C110.62 17.9972 108.463 16.706 107.403 13.9191C106.149 10.6039 107.734 6.1077 111.668 5.20709C114.778 4.50176 117.287 5.34953 118.898 7.91582C119.709 9.20701 119.576 10.5832 119.385 12.196ZM116.706 10.0157C116.731 8.74291 115.403 7.48849 113.878 7.35983C112.06 7.199 110.457 8.31328 110.174 9.93761C110.988 10.3879 115.656 10.4431 116.706 10.0157Z" fill="white"/>
<path d="M149.283 12.1726H139.951C139.826 12.8745 139.976 13.5974 140.37 14.1919C140.763 14.7863 141.37 15.2067 142.065 15.3661C143.765 15.8026 145.389 15.5637 146.97 14.8676C147.2 14.7642 147.459 14.6792 147.769 14.5597L149.148 16.0324C147.08 17.6889 144.898 18.2931 142.435 17.9577C140.231 17.659 138.508 16.5631 137.626 14.5367C135.731 10.1715 137.888 4.7885 143.779 4.94473C147.857 5.05501 150.301 8.56097 149.283 12.1726ZM139.963 9.87513C140.955 10.4242 145.725 10.4495 146.667 9.94405C146.533 8.7149 145.362 7.57765 144.036 7.37317C142.458 7.12734 140.48 8.0739 139.963 9.87513Z" fill="white"/>
<path d="M85.3634 9.37931L92.3431 17.7651H88.5638L81.8184 9.37471L88.6695 0.874023H92.4396L85.3634 9.37931Z" fill="white"/>
<path d="M78.2969 0.993338L80.7736 0.793457C81.2055 1.72394 81.2974 16.398 80.916 17.7512H78.2969V0.993338Z" fill="white"/>
<path d="M152.131 5.31757H154.371C154.518 5.67368 154.656 6.00682 154.858 6.51226C156.386 5.65301 157.916 4.85118 159.811 4.97755V7.4864L158.433 7.63344C156.446 7.8494 155.072 9.0395 154.849 11.013C154.656 12.7407 154.697 14.496 154.619 16.2375C154.601 16.72 154.564 17.2002 154.529 17.7699H152.131V5.31757Z" fill="white"/>
</svg>
