<svg width="262" height="37" viewBox="0 0 262 37" fill="none" xmlns="http://www.w3.org/2000/svg">
<path d="M117.851 7.44366H122.16C122.291 7.89017 122.382 8.34771 122.431 8.81066C122.405 14.8753 122.533 20.9475 122.261 27.0008C121.99 33.0541 117.904 36.736 111.824 36.6491C108.425 36.6038 105.261 35.7579 102.406 33.1561L105.012 30.2484C107.613 31.6871 110.2 32.4348 113.063 32.1365C115.4 31.9024 117.904 29.9538 117.435 26.3777C116.865 26.7025 116.337 26.9857 115.823 27.2954C112.085 29.5611 106.503 28.6472 103.901 25.2146C103.127 24.1951 102.372 22.9036 102.274 21.6839C101.896 17.0353 101.813 12.3641 101.605 7.49276H106.439C106.511 8.13472 106.647 8.78423 106.654 9.43752C106.681 12.0809 106.654 14.6903 106.673 17.3185C106.659 18.0057 106.702 18.6928 106.802 19.3728C107.33 22.3711 108.878 23.7797 111.665 23.8552C114.622 23.9345 116.658 22.5033 117.296 19.6674C117.626 18.1475 117.811 16.6 117.851 15.0452C117.923 12.5642 117.851 10.0757 117.851 7.44366Z" fill="#CD1528"/>
<path d="M52.6035 0.47658C53.0961 0.377531 53.5942 0.308175 54.0951 0.268887C57.1161 0.268887 60.1371 0.182034 63.1317 0.268887C69.7816 0.487909 74.5284 6.38639 73.1614 12.6361C72.6798 14.8589 71.4646 16.8553 69.7112 18.3039C67.9577 19.7525 65.768 20.5693 63.4942 20.6228C61.6325 20.6681 59.7708 20.6228 57.6372 20.6228V28.3112H52.6035V0.47658ZM57.7543 15.7515C60.2542 15.5778 62.5199 15.6269 64.695 15.2152C66.9419 14.7923 68.256 12.6927 68.222 10.3061C68.1918 8.29717 66.4925 5.83884 64.6044 5.62737C62.3991 5.38191 60.1447 5.57073 57.7732 5.57073L57.7543 15.7515Z" fill="#CD1528"/>
<path d="M92.1456 9.50175C92.2551 8.77294 92.3382 8.23294 92.4477 7.50412H96.9792V28.5529H92.5232C92.391 27.9713 92.2589 27.3974 92.0738 26.5817C88.8338 28.9003 85.4616 29.7462 81.7081 28.4207C79.6243 27.6762 77.8347 26.2823 76.6026 24.4443C73.6307 20.1998 74.216 13.8709 77.845 10.0946C81.4739 6.31838 86.3453 6.09936 92.1456 9.50175ZM85.726 24.2857C89.2152 24.5123 91.9832 21.4082 91.9605 18.0021C91.963 16.3496 91.309 14.7637 90.1423 13.5935C88.9755 12.4232 87.3917 11.7643 85.7392 11.7618C84.0867 11.7593 82.5009 12.4134 81.3306 13.5801C80.1603 14.7468 79.5015 16.3307 79.499 17.9832C79.5065 21.4384 82.097 24.4557 85.7146 24.2857H85.726Z" fill="#CD1528"/>
<path d="M0.333349 0.359436H9.72863C14.5282 5.15904 19.2485 9.87178 23.9915 14.6072L10.0194 28.4282H0.386216L0.125656 28.0884L13.7201 14.4939C9.07157 9.87556 4.56274 5.3554 0.03125 0.835242L0.333349 0.359436Z" fill="#CD1528"/>
<path d="M28.8027 28.4245H19.1998L18.9392 28.0808L32.477 14.5128L18.8184 0.839055L19.0563 0.434998H28.5233L42.7408 14.5808L28.8027 28.4245Z" fill="#CD1528"/>
<path d="M203.668 26.8536V36.0449H199.337C199.288 35.3841 199.197 34.727 199.194 34.0662C199.194 28.938 199.001 23.8061 199.235 18.6893C199.541 12.0696 202.634 8.30089 208.921 7.19445C212.154 6.62424 216.814 8.18005 219.14 12.1791C222.074 17.2241 220.869 24.4896 215.209 27.4917C212.059 29.1571 208.748 29.3799 205.564 27.3218C205.139 27.0772 204.701 26.8578 204.25 26.6647L203.668 26.8536ZM209.71 24.297C213.623 24.7351 216.338 21.1174 216.349 17.9605C216.334 16.2195 215.628 14.5557 214.387 13.3349C213.146 12.1141 211.47 11.4362 209.729 11.4503C206.233 11.4843 203.729 14.2447 203.627 17.9265C203.57 21.0004 206.24 24.7955 209.722 24.297H209.71Z" fill="#FECC18"/>
<path d="M171.17 19.0518H156.087C155.423 21.3478 156.914 23.5833 159.32 24.2555C162.53 25.1656 165.513 24.4103 168.639 22.9338L171.109 25.1996C167.76 28.0733 164.229 29.0211 160.354 28.5982C150.914 27.5861 148.523 17.0844 153.327 10.7441C155.408 7.9988 161.223 6.59026 164.082 7.38327C168.164 8.54635 170.543 10.9631 171.589 14.9169C171.929 16.2121 172.102 17.4847 171.17 19.0518ZM166.974 15.37C166.659 13.9813 165.819 12.7679 164.631 11.9828C163.443 11.1977 161.997 10.9014 160.596 11.1557C158.074 11.5749 156.065 13.6178 156.223 15.5702C158.092 16.1517 165.501 16.0422 166.974 15.37Z" fill="#FECC18"/>
<path d="M195.176 19.0633H179.845C179.376 21.4952 180.864 23.5948 183.16 24.2594C185.958 25.0789 188.624 24.5313 191.249 23.5042C191.653 23.3494 192.038 23.1266 192.578 22.8887L194.844 25.2715C192.163 27.7978 188.972 28.7154 185.532 28.6701C180.77 28.5983 177.224 26.4761 175.483 21.8955C173.421 16.4464 176.027 9.05629 182.492 7.57601C187.605 6.4167 191.728 7.81013 194.376 12.0282C195.709 14.1504 195.49 16.4124 195.176 19.0633ZM190.773 15.4797C190.815 13.3876 188.632 11.3258 186.125 11.1143C183.138 10.85 180.502 12.6815 180.037 15.3513C181.374 16.0914 189.047 16.1821 190.773 15.4797Z" fill="#FECC18"/>
<path d="M244.315 19.0255H228.976C228.771 20.179 229.017 21.3673 229.664 22.3444C230.31 23.3214 231.308 24.0124 232.45 24.2744C235.244 24.9919 237.914 24.5992 240.512 23.455C240.89 23.2851 241.317 23.1453 241.826 22.949L244.092 25.3695C240.693 28.0922 237.106 29.0854 233.058 28.534C229.437 28.0431 226.604 26.2419 225.154 22.9112C222.039 15.7364 225.585 6.88863 235.267 7.14542C241.97 7.32668 245.988 13.0892 244.315 19.0255ZM228.995 15.2492C230.626 16.1517 238.466 16.1933 240.014 15.3625C239.795 13.3422 237.869 11.473 235.69 11.1369C233.096 10.7328 229.844 12.2887 228.995 15.2492Z" fill="#FECC18"/>
<path d="M139.256 14.4336L150.729 28.2169H144.517L133.43 14.4261L144.69 0.453979H150.887L139.256 14.4336Z" fill="#FECC18"/>
<path d="M127.643 0.650249L131.713 0.321716C132.423 1.85109 132.574 25.9699 131.947 28.1941H127.643V0.650249Z" fill="#FECC18"/>
<path d="M249 7.75714H252.682C252.924 8.34246 253.15 8.89001 253.482 9.72078C255.994 8.30847 258.509 6.99056 261.624 7.19826V11.3219L259.358 11.5636C256.092 11.9186 253.834 13.8746 253.467 17.1184C253.15 19.9582 253.218 22.8432 253.09 25.7056C253.059 26.4986 252.999 27.2878 252.942 28.2244H249V7.75714Z" fill="#FECC18"/>
</svg>
