<svg width="188" height="46" viewBox="0 0 188 46" fill="none" xmlns="http://www.w3.org/2000/svg">
<path d="M181.598 13.575L177.397 23.7739C177.397 23.9156 177.252 24.0573 177.252 24.1989L177.107 24.4822L176.962 24.1989C176.962 24.0573 176.817 23.9156 176.817 23.7739L172.616 13.575H167.111L174.354 31.1399L171.312 37.7975H176.817L186.958 13.575H181.598Z" fill="black"/>
<path d="M141.035 14.567C140.021 13.8587 138.862 13.4338 137.413 13.2921C134.95 13.0088 132.632 13.8587 131.183 15.5586V13.5754H126.258V31.1404H131.183V21.9329C131.183 19.8081 131.618 19.3832 131.908 18.8166C132.487 17.825 133.646 17.2584 134.95 17.4C136.254 17.4 137.558 17.9668 138.137 18.9583C138.572 19.6666 138.572 20.5164 138.572 21.083C138.572 22.6412 138.572 31.1404 138.572 31.1404H143.498V20.5164C143.498 17.6834 142.628 15.8419 141.035 14.567Z" fill="black"/>
<path d="M116.84 13.7167C114.378 12.8668 111.77 13.0084 109.307 14.1417C107.569 14.8499 106.265 16.1248 105.251 17.683C104.381 19.0995 103.947 20.6577 103.947 22.4991C103.947 24.3406 104.381 25.8988 105.251 27.3153C106.12 28.7318 107.279 29.7234 108.728 30.5733C110.176 31.2816 111.915 31.7065 113.508 31.7065C114.378 31.7065 115.247 31.5649 116.116 31.4232C116.84 31.2816 117.565 30.9983 118.289 30.5733C119.738 29.7234 120.897 28.7318 121.766 27.457C122.635 26.0404 123.07 24.4823 123.07 22.6408C122.925 18.3912 120.607 15.1332 116.84 13.7167ZM118.144 22.4991C118.144 24.0573 117.565 25.3322 116.551 26.1821C115.826 26.8903 114.812 27.1737 113.363 27.1737C112.06 27.1737 111.045 26.7487 110.176 26.1821C109.162 25.3322 108.728 24.0573 108.583 22.4991C108.583 20.7993 109.162 19.2411 110.466 18.2496C111.19 17.683 112.06 17.3997 113.219 17.3997C114.378 17.3997 115.247 17.683 115.971 18.2496C117.565 19.2411 118.289 20.7993 118.144 22.4991Z" fill="black"/>
<path d="M98.2977 14.5661C97.4285 13.8578 96.1246 13.4329 94.6759 13.2912C94.3861 13.2912 94.0964 13.2912 93.8067 13.2912C91.7784 13.2912 90.1849 14.1411 88.7361 15.841L88.4464 16.1243H87.8669C87.4323 15.5577 86.9977 14.991 86.4182 14.7077C85.5489 13.8578 84.39 13.4329 82.9412 13.2912C80.6233 13.0079 78.74 13.7162 77.1464 15.416V13.5745H72.2207V31.1394H77.1464V21.932V21.7903C77.1464 19.8072 77.4361 19.3823 77.7259 18.8157C78.3053 17.8241 79.4643 17.2575 80.6233 17.2575C81.7823 17.2575 82.9413 17.8241 83.5207 18.8157C83.9554 19.5239 83.9554 20.3738 83.9554 21.2237V30.9977H89.0259V21.6487C89.0259 19.9489 89.3156 19.2406 89.6054 18.674C90.1848 17.6824 91.3438 17.2575 92.5028 17.2575C93.6618 17.2575 94.6759 17.9657 95.2554 18.8157C95.5451 19.3823 95.69 20.0905 95.69 20.6571C95.69 20.9404 95.69 21.0821 95.69 21.3654V31.1394H100.616V20.5155C100.616 19.5239 100.471 18.674 100.326 17.8241C100.036 16.4076 99.3118 15.2744 98.2977 14.5661Z" fill="black"/>
<path d="M162.185 25.7571C161.461 26.4654 159.722 27.7403 157.404 27.8819C155.521 27.8819 153.927 27.457 152.913 26.3237C152.479 25.7571 152.044 25.1905 151.899 24.4823H165.662V24.3406C165.807 23.6324 165.807 22.9241 165.807 22.3575C165.807 21.7909 165.662 20.941 165.372 19.8078C164.793 17.8246 163.634 16.2665 162.04 14.9916C160.302 13.7167 158.563 13.2918 158.129 13.2918C154.507 12.7252 150.45 14.2833 148.422 17.5413C146.973 19.8078 146.973 22.0742 147.118 22.7824C147.118 23.6324 147.263 26.3237 149.436 28.5902C151.899 31.2816 155.521 31.4232 156.68 31.5649C161.606 31.7065 164.938 28.7318 165.662 28.0236L162.185 25.7571ZM153.638 18.3912C154.362 17.8246 155.231 17.5413 156.39 17.5413C157.549 17.5413 158.418 17.8246 159.143 18.3912C159.867 18.9578 160.447 19.6661 160.736 20.6577H151.899C152.334 19.6661 152.913 18.9578 153.638 18.3912Z" fill="black"/>
<path d="M38.0314 2.10101C26.8763 2.10101 18.0391 10.8834 18.0391 21.649C18.0391 32.4145 27.0211 41.197 38.0314 41.197C49.0417 41.197 58.0237 32.4145 58.0237 21.649C58.1686 10.8834 49.0417 2.10101 38.0314 2.10101ZM38.0314 28.8732C33.975 28.8732 30.4981 25.6152 30.4981 21.649C30.4981 17.6827 33.8301 14.4247 38.0314 14.4247C42.2327 14.4247 45.5648 17.6827 45.5648 21.649C45.4199 25.6152 42.2327 28.8732 38.0314 28.8732Z" fill="#8B3FFD"/>
<path d="M18.0382 7.90887V36.3809H10.9394L1.8125 7.90887H18.0382Z" fill="#8B3FFD"/>
</svg>
