<svg width="158" height="80" viewBox="0 0 158 80" fill="none" xmlns="http://www.w3.org/2000/svg">
<g clip-path="url(#clip0_266_3157)">
<path d="M136.48 23.3822V42.7283H129.571V29.1574H122.92V42.7283H116.012V23.3809H136.48V23.3822Z" fill="black"/>
<path fill-rule="evenodd" clip-rule="evenodd" d="M101.823 43.4201C108.008 43.4201 112.6 39.6285 112.6 33.8803C112.6 28.3167 109.212 24.7044 103.549 24.7044C100.936 24.7044 98.7796 25.6243 97.1554 27.2115C97.5431 23.9309 100.317 21.5359 103.372 21.5359C104.077 21.5359 109.384 21.5247 109.384 21.5247L112.385 15.7817C112.385 15.7817 105.722 15.9334 102.625 15.9334C95.5477 16.0567 90.7676 22.4894 90.7676 30.3022C90.7676 39.4042 95.4297 43.4201 101.823 43.4201ZM101.861 29.7912C104.157 29.7912 105.749 31.2999 105.749 33.8796C105.749 36.2014 104.335 38.1144 101.861 38.1197C99.495 38.1197 97.9032 36.3472 97.9032 33.9192C97.9032 31.3388 99.495 29.7912 101.861 29.7912Z" fill="black"/>
<path d="M85.1446 36.2515C85.1446 36.2515 83.5132 37.1919 81.0766 37.3699C78.2754 37.453 75.7795 35.6838 75.7795 32.5403C75.7795 29.474 77.982 27.7166 81.0061 27.7166C82.8604 27.7166 85.3134 29.0019 85.3134 29.0019C85.3134 29.0019 87.1084 25.708 88.0382 24.0608C86.3355 22.7703 84.0678 22.0627 81.4301 22.0627C74.7732 22.0627 69.6172 26.4031 69.6172 32.5014C69.6172 38.6776 74.4633 42.917 81.4301 42.7891C83.3774 42.7165 86.0639 42.0327 87.7012 40.9809L85.1446 36.2515Z" fill="black"/>
<path d="M0.199219 18.0187L9.78195 35.1472V45.5951L0.210429 62.69L0.199219 18.0187Z" fill="#5B57A2"/>
<path d="M36.9922 28.9144L45.9715 23.4108L64.3483 23.3937L36.9922 40.1523V28.9144Z" fill="#D90751"/>
<path d="M36.9411 17.9178L36.9919 40.5953L27.3867 34.6935V0.794556L36.9418 17.9178H36.9411Z" fill="#FAB718"/>
<path d="M64.348 23.3936L45.9706 23.4108L36.9411 17.9178L27.3867 0.794556L64.3474 23.3936H64.348Z" fill="#ED6F26"/>
<path d="M36.9919 62.7849V51.7824L27.3867 45.9927L27.392 79.9253L36.9919 62.7849Z" fill="#63B22F"/>
<path d="M45.95 57.3315L9.78129 35.1472L0.199219 18.0187L64.3103 57.3091L45.9493 57.3315H45.95Z" fill="#1487C9"/>
<path d="M27.3945 79.9253L36.9931 62.7849L45.95 57.3315L64.3103 57.3091L27.3945 79.9253Z" fill="#017F36"/>
<path d="M0.210938 62.6899L27.4669 45.9933L18.3035 40.3711L9.78246 45.595L0.210938 62.6899Z" fill="#984995"/>
<path d="M75.7812 55.7487C75.5702 56.0178 75.2926 56.2209 74.9596 56.358C74.6179 56.4971 74.2523 56.5679 73.8834 56.5664C73.5165 56.5714 73.1518 56.5102 72.8066 56.3857C72.4966 56.2731 72.2132 56.0976 71.9744 55.8701C71.7386 55.6422 71.5534 55.3672 71.431 55.0629C71.2985 54.7297 71.2324 54.3737 71.2365 54.0151C71.2365 53.659 71.2978 53.3293 71.4251 53.0167C71.5471 52.7035 71.7245 52.4351 71.9467 52.2096C72.1689 51.9795 72.4353 51.8041 72.7347 51.6669C73.04 51.535 73.373 51.4638 73.739 51.4638C74.1333 51.4638 74.4993 51.5133 74.8323 51.6115C75.1653 51.7104 75.4482 51.8753 75.681 52.1061L75.2761 52.7919C75.0803 52.6144 74.8497 52.4797 74.5989 52.3962C74.3605 52.3194 74.1115 52.2807 73.861 52.2815C73.6394 52.2815 73.4284 52.325 73.2233 52.4074C73.0212 52.4888 72.8366 52.6081 72.6793 52.7589C72.5186 52.914 72.3919 53.1008 72.3074 53.3075C72.2131 53.5212 72.1689 53.7573 72.1689 54.0204C72.1689 54.2894 72.2184 54.5308 72.3127 54.7392C72.4076 54.9535 72.5349 55.1348 72.6958 55.2878C72.8567 55.4421 73.0453 55.5568 73.2616 55.634C73.4785 55.7164 73.706 55.7547 73.95 55.7547C74.2494 55.7547 74.5217 55.694 74.7545 55.5786C74.9852 55.4672 75.1924 55.3128 75.3651 55.1236L75.7812 55.7487ZM76.924 56.451V51.568H77.8011V55.206L80.6531 51.568H81.5301V56.4517H80.6531V52.8136L77.8011 56.4517H76.924V56.451ZM87.3396 55.7487C87.1239 56.02 86.8408 56.2301 86.5186 56.358C86.1767 56.4971 85.8109 56.5678 85.4418 56.5664C85.0751 56.5713 84.7106 56.5101 84.3656 56.3857C84.0554 56.2731 83.7718 56.0976 83.5328 55.8701C83.2969 55.6422 83.1118 55.3672 82.9894 55.0629C82.8569 54.7297 82.7908 54.3737 82.7949 54.0151C82.7949 53.659 82.8562 53.3293 82.9835 53.0167C83.1061 52.7035 83.2835 52.4351 83.5051 52.2096C83.7273 51.9795 83.9937 51.8041 84.2931 51.6669C84.6093 51.5276 84.9519 51.4584 85.2974 51.4638C85.6917 51.4638 86.0577 51.5133 86.3907 51.6115C86.7237 51.7104 87.0066 51.8753 87.24 52.1061L86.8345 52.7919C86.639 52.6143 86.4085 52.4795 86.1579 52.3962C85.9195 52.3195 85.6705 52.2807 85.42 52.2815C84.9792 52.2829 84.5559 52.4538 84.2377 52.7589C84.0783 52.9151 83.9519 53.1017 83.8658 53.3075C83.7715 53.5212 83.7273 53.7573 83.7273 54.0204C83.7273 54.2894 83.7774 54.5308 83.8717 54.7392C83.966 54.9535 84.0933 55.1348 84.2542 55.2878C84.4151 55.4421 84.6043 55.5568 84.8206 55.634C85.0369 55.7105 85.2644 55.7547 85.5084 55.7547C85.8084 55.7547 86.0748 55.694 86.3129 55.5786C86.5435 55.4672 86.7508 55.3128 86.9235 55.1236L87.3396 55.7487ZM87.7893 51.568H92.2892V52.4351H90.4804V56.451H89.6034V52.4351H87.7946V51.568H87.7893Z" fill="black"/>
<path fill-rule="evenodd" clip-rule="evenodd" d="M96.3863 56.4022C96.7193 56.298 97.0022 56.1385 97.2461 55.9195L96.9797 55.239C96.8188 55.3821 96.6025 55.5028 96.3421 55.6017C96.0809 55.7006 95.7868 55.7494 95.465 55.7494C94.9823 55.7494 94.5827 55.6234 94.2662 55.3656C93.9504 55.1071 93.7782 54.7458 93.7393 54.2842H97.535C97.5739 54.114 97.5904 53.9221 97.5904 53.6973C97.5904 53.3623 97.529 53.0609 97.4071 52.7866C97.2935 52.5202 97.1275 52.2794 96.9191 52.0784C96.7077 51.8793 96.4586 51.7246 96.1865 51.6234C95.9016 51.5129 95.5985 51.4569 95.2929 51.4585C94.8821 51.4585 94.5214 51.5298 94.2056 51.6616C93.9069 51.7873 93.6368 51.9721 93.4116 52.205C93.1929 52.4366 93.025 52.7113 92.9183 53.0115C92.8011 53.3311 92.7428 53.6694 92.7462 54.0098C92.7462 54.3943 92.8128 54.7451 92.9348 55.0583C93.0535 55.3617 93.2351 55.6366 93.4677 55.8648C93.6952 56.089 93.9721 56.2598 94.2998 56.3805C94.6507 56.5049 95.0209 56.5661 95.3932 56.5611C95.7303 56.5591 96.0652 56.5057 96.3863 56.4029V56.4022ZM94.1666 52.6435C94.4383 52.3969 94.799 52.2762 95.254 52.2762C95.6813 52.2762 96.0256 52.3916 96.2755 52.6224C96.5254 52.8526 96.6579 53.1711 96.6804 53.5766H93.6839C93.7264 53.2175 93.898 52.8861 94.1666 52.6442V52.6435Z" fill="black"/>
<path d="M98.7812 51.568H99.5805L101.478 53.9881L103.276 51.568H104.053V56.4517H103.176V52.8908L101.467 55.1566H101.433L99.6583 52.8901V56.451H98.7812V51.568Z" fill="black"/>
<path fill-rule="evenodd" clip-rule="evenodd" d="M106.438 51.5844C106.172 51.6539 105.918 51.7629 105.684 51.9075L105.917 52.5999C106.117 52.501 106.316 52.4186 106.516 52.3474C106.716 52.2755 106.971 52.2425 107.277 52.2425C107.521 52.2425 107.715 52.2814 107.865 52.3579C108.014 52.4291 108.125 52.5393 108.203 52.6712C108.281 52.803 108.331 52.9672 108.359 53.1591C108.386 53.351 108.398 53.5594 108.398 53.7849C108.218 53.6599 108.014 53.5755 107.798 53.5376C107.59 53.4962 107.378 53.4741 107.166 53.4717C106.905 53.4717 106.661 53.5106 106.427 53.5759C106.194 53.6418 105.995 53.7407 105.834 53.8726C105.669 54.0043 105.537 54.171 105.445 54.3606C105.348 54.5682 105.298 54.7952 105.301 55.0246C105.301 55.5021 105.44 55.8753 105.717 56.1391C105.995 56.4022 106.361 56.5334 106.816 56.5334C107.226 56.5334 107.554 56.4622 107.803 56.3197C108.053 56.1766 108.253 56.0124 108.398 55.8258V56.4569H109.219V53.4611C109.219 52.8241 109.08 52.3309 108.797 51.9847C108.52 51.6392 108.026 51.4637 107.327 51.4637C107.015 51.4637 106.721 51.5073 106.438 51.5844ZM107.904 55.541C107.704 55.6834 107.443 55.7487 107.122 55.7487C106.839 55.7487 106.616 55.6775 106.461 55.5403C106.306 55.3979 106.228 55.2113 106.228 54.9805C106.228 54.844 106.256 54.7286 106.317 54.6244C106.378 54.5202 106.461 54.4377 106.556 54.3718C106.659 54.3028 106.773 54.2526 106.894 54.2234C107.022 54.1905 107.149 54.174 107.282 54.174C107.716 54.174 108.087 54.2782 108.392 54.4978V55.1176C108.248 55.2788 108.084 55.4209 107.904 55.5403V55.541ZM116.96 49.8501C117.138 49.7684 117.304 49.6312 117.459 49.4281L116.982 48.7423C116.86 48.9072 116.721 49.0219 116.566 49.0826C116.401 49.147 116.23 49.1948 116.055 49.225L115.889 49.2547C115.745 49.2797 115.59 49.3074 115.423 49.3351C115.155 49.3846 114.895 49.4656 114.646 49.5765C114.252 49.7466 113.936 49.9767 113.697 50.2676C113.459 50.5584 113.27 50.8874 113.142 51.2501C113.013 51.6175 112.925 51.9985 112.882 52.3856C112.837 52.7813 112.815 53.1591 112.815 53.5212C112.815 53.988 112.876 54.4101 112.998 54.7886C113.12 55.1677 113.292 55.4856 113.519 55.7434C113.747 56.0072 114.019 56.205 114.341 56.3474C114.663 56.4899 115.023 56.5611 115.428 56.5611C115.8 56.5611 116.144 56.4899 116.455 56.358C116.754 56.2313 117.026 56.0469 117.254 55.8153C117.476 55.5898 117.654 55.3207 117.776 55.0194C117.903 54.7173 117.964 54.3936 117.964 54.0533C117.964 53.686 117.909 53.3517 117.804 53.0549C117.706 52.772 117.551 52.5124 117.349 52.2926C117.145 52.0765 116.897 51.9077 116.621 51.7981C116.317 51.6784 115.993 51.6189 115.667 51.6227C115.456 51.6227 115.251 51.6504 115.051 51.7051C114.857 51.7599 114.67 51.8392 114.496 51.9412C114.327 52.038 114.172 52.1579 114.036 52.2973C113.902 52.4351 113.792 52.5887 113.714 52.7641H113.691C113.709 52.5393 113.736 52.3091 113.786 52.0731C113.836 51.837 113.908 51.6115 114.003 51.3978C114.097 51.1842 114.219 50.9916 114.369 50.8162C114.529 50.6391 114.726 50.4988 114.946 50.4047C115.187 50.2897 115.443 50.2067 115.706 50.1581L115.88 50.1264C116.053 50.0948 116.219 50.0645 116.377 50.0315C116.588 49.988 116.782 49.9326 116.96 49.8508V49.8501ZM113.875 54.5419C113.789 54.2649 113.748 53.976 113.753 53.686C113.79 53.5196 113.858 53.3615 113.953 53.2198C114.047 53.0714 114.169 52.9402 114.313 52.8241C114.639 52.5688 115.042 52.4317 115.456 52.4351C115.972 52.4351 116.361 52.594 116.632 52.9072C116.905 53.2251 117.038 53.6201 117.038 54.0975C117.038 54.3336 116.993 54.5479 116.916 54.745C116.841 54.9395 116.728 55.117 116.583 55.2668C116.438 55.4167 116.264 55.5359 116.073 55.6175C115.873 55.7052 115.656 55.7493 115.412 55.7493C115.168 55.7493 114.946 55.6999 114.741 55.601C114.537 55.504 114.357 55.3636 114.213 55.1895C114.063 54.9955 113.948 54.7762 113.875 54.5419ZM124.69 51.5679H123.813V56.4516H124.69V51.5679ZM119.229 51.5679H120.106V53.0332H120.917C121.299 53.0332 121.61 53.0826 121.86 53.1756C122.11 53.2692 122.309 53.3952 122.459 53.5488C122.609 53.7025 122.714 53.8838 122.776 54.0863C122.836 54.2894 122.87 54.4978 122.87 54.7173C122.87 54.9369 122.836 55.146 122.764 55.3543C122.698 55.5627 122.581 55.7434 122.425 55.9083C122.27 56.0731 122.059 56.205 121.793 56.3039C121.527 56.4022 121.205 56.4569 120.816 56.4569H119.224V51.5679H119.229ZM120.106 53.8502V55.6392H120.745C121.183 55.6392 121.494 55.5627 121.671 55.4084C121.849 55.2548 121.937 55.0358 121.937 54.745C121.937 54.4483 121.843 54.2241 121.666 54.0698C121.482 53.9161 121.177 53.839 120.756 53.839H120.106V53.8502Z" fill="black"/>
<path d="M130.49 55.7487C130.279 56.0178 130.002 56.2209 129.669 56.358C129.327 56.4971 128.961 56.5679 128.592 56.5664C128.226 56.5714 127.861 56.5102 127.516 56.3857C127.205 56.2733 126.922 56.0977 126.683 55.8701C126.448 55.642 126.262 55.3671 126.139 55.0629C126.007 54.7295 125.942 54.3737 125.945 54.0151C125.945 53.659 126.006 53.3293 126.134 53.0167C126.256 52.7035 126.433 52.4351 126.656 52.2096C126.878 51.9795 127.144 51.8041 127.444 51.6669C127.76 51.5276 128.103 51.4583 128.448 51.4638C128.842 51.4638 129.208 51.5133 129.541 51.6115C129.874 51.7104 130.157 51.8753 130.39 52.1061L129.985 52.7919C129.789 52.6144 129.559 52.4797 129.308 52.3962C129.069 52.3194 128.82 52.2807 128.57 52.2815C128.348 52.2815 128.137 52.325 127.932 52.4074C127.73 52.4889 127.545 52.6082 127.388 52.7589C127.229 52.915 127.102 53.1015 127.016 53.3075C126.922 53.5212 126.878 53.7573 126.878 54.0204C126.878 54.2894 126.927 54.5308 127.022 54.7392C127.116 54.9535 127.244 55.1348 127.405 55.2878C127.566 55.4421 127.754 55.5568 127.971 55.634C128.188 55.7105 128.415 55.7547 128.659 55.7547C128.958 55.7547 129.225 55.694 129.464 55.5786C129.694 55.4672 129.901 55.3128 130.074 55.1236L130.49 55.7487ZM130.939 51.568H135.44V52.4351H133.63V56.451H132.754V52.4351H130.945V51.568H130.939Z" fill="black"/>
<path fill-rule="evenodd" clip-rule="evenodd" d="M137.27 51.5686H136.393V58.6244H137.27V56.2268C137.447 56.3422 137.658 56.4246 137.902 56.4793C138.146 56.5341 138.401 56.5611 138.662 56.5611C139.051 56.5611 139.4 56.4899 139.717 56.3587C140.02 56.2288 140.295 56.0406 140.527 55.8047C140.754 55.568 140.926 55.2937 141.048 54.9699C141.17 54.6468 141.231 54.3006 141.231 53.9333C141.231 53.5706 141.176 53.2363 141.071 52.9343C140.971 52.6475 140.817 52.3829 140.616 52.1555C140.418 51.9337 140.173 51.7593 139.899 51.6451C139.6 51.5164 139.276 51.4528 138.95 51.4585C138.607 51.4585 138.285 51.5244 137.98 51.6563C137.675 51.7882 137.436 51.9465 137.27 52.1443V51.5686ZM137.88 52.474C138.13 52.3421 138.402 52.2762 138.696 52.2762C138.951 52.2762 139.179 52.3144 139.384 52.3968C139.584 52.4793 139.75 52.5947 139.89 52.7483C140.028 52.902 140.133 53.078 140.2 53.2857C140.272 53.4941 140.306 53.7196 140.306 53.9663C140.306 54.23 140.261 54.4655 140.184 54.685C140.111 54.8932 139.995 55.0839 139.845 55.2449C139.693 55.4039 139.51 55.5291 139.307 55.6122C139.08 55.7071 138.836 55.7538 138.59 55.7493C138.352 55.7493 138.13 55.7223 137.919 55.6676C137.688 55.6047 137.469 55.5045 137.27 55.3708V52.9508C137.425 52.7648 137.631 52.6059 137.88 52.474ZM147.957 51.5679H147.08V56.4516H147.957V51.5679ZM142.491 51.5679H143.368V53.0332H144.178C144.561 53.0332 144.871 53.0826 145.121 53.1756C145.371 53.2693 145.571 53.3952 145.721 53.5489C145.87 53.7025 145.976 53.8838 146.037 54.0863C146.098 54.2894 146.131 54.4978 146.131 54.7174C146.131 54.9369 146.098 55.146 146.026 55.3544C145.959 55.5627 145.843 55.7434 145.687 55.9083C145.532 56.0731 145.321 56.205 145.055 56.3039C144.788 56.4022 144.467 56.4569 144.078 56.4569H142.486V51.5679H142.491ZM143.374 53.8502V55.6392H144.012C144.45 55.6392 144.761 55.5627 144.939 55.4084C145.116 55.2548 145.205 55.0359 145.205 54.745C145.205 54.4483 145.111 54.2241 144.933 54.0698C144.75 53.9162 144.445 53.839 144.023 53.839H143.374V53.8502Z" fill="black"/>
<path d="M152.164 53.9221L154.04 56.4516H152.964L151.515 54.476L150.044 56.4516H149.024L150.888 53.9656L149.134 51.5679H150.211L151.549 53.4117L152.908 51.5679H153.929L152.164 53.9221ZM75.1326 62.4873H72.4415V66.5586H71.5645V61.6756H76.009V66.5586H75.1326V62.4873ZM80.9863 62.5421H79.2553L79.1993 63.365C79.1386 64.062 79.0555 64.6219 78.9388 65.0492C78.8221 65.4778 78.6777 65.8069 78.5115 66.037C78.3453 66.2678 78.1508 66.4267 77.9285 66.5039C77.6993 66.587 77.4569 66.6279 77.2131 66.6245L77.1465 65.7792C77.2408 65.7844 77.3516 65.7627 77.4735 65.708C77.5962 65.6532 77.7182 65.5325 77.8342 65.3519C77.951 65.1646 78.0565 64.9015 78.1508 64.5612C78.2451 64.2157 78.3064 63.7659 78.3394 63.2002L78.4284 61.6802H81.8633V66.5639H80.9863V62.5414V62.5421Z" fill="black"/>
<path fill-rule="evenodd" clip-rule="evenodd" d="M84.2275 61.6868C83.9439 61.7633 83.6887 61.8728 83.4724 62.01L83.7059 62.7017C83.9057 62.6028 84.1055 62.5203 84.3046 62.4491C84.5044 62.3779 84.7603 62.3449 85.0649 62.3449C85.3096 62.3449 85.5035 62.3832 85.6531 62.4597C85.8035 62.5316 85.9143 62.641 85.9921 62.7729C86.0692 62.9048 86.1194 63.0696 86.147 63.2609C86.1747 63.4534 86.186 63.6618 86.186 63.8867C86.0065 63.7618 85.8019 63.6776 85.5865 63.64C85.3782 63.5986 85.1665 63.5765 84.9542 63.5741C84.6937 63.5741 84.449 63.6124 84.2163 63.6783C83.9828 63.7442 83.783 63.8431 83.6221 63.975C83.4579 64.1067 83.3252 64.2734 83.2337 64.463C83.1362 64.6706 83.0871 64.8977 83.09 65.127C83.09 65.6038 83.2284 65.9777 83.5061 66.2408C83.783 66.5039 84.1497 66.6358 84.6047 66.6358C85.0155 66.6358 85.3425 66.5646 85.5925 66.4215C85.8417 66.2791 86.0415 66.1142 86.186 65.9276V66.5587H87.0076V63.5629C87.0076 62.9266 86.8685 62.4326 86.5856 62.0871C86.308 61.7409 85.814 61.5662 85.115 61.5662C84.8152 61.5664 84.5167 61.6068 84.2275 61.6862V61.6868ZM85.698 65.6421C85.4988 65.7851 85.2377 65.8511 84.9159 65.8511C84.6271 65.8511 84.4108 65.7799 84.2558 65.6421C84.1002 65.4996 84.0224 65.313 84.0224 65.0829C84.0224 64.9457 84.0501 64.8303 84.1114 64.7261C84.1721 64.6219 84.2558 64.5395 84.3501 64.4736C84.4444 64.4076 84.5605 64.3582 84.6884 64.3252C84.8153 64.2924 84.9458 64.276 85.0768 64.2764C85.5094 64.2764 85.8813 64.3806 86.1866 64.5995V65.2194C86.0425 65.3806 85.8783 65.5227 85.698 65.6421Z" fill="black"/>
<path d="M87.8672 61.6755H92.3677V62.542H90.5583V66.5586H89.6819V62.5427H87.8731V61.6755H87.8672Z" fill="black"/>
<path fill-rule="evenodd" clip-rule="evenodd" d="M96.4631 66.5091C96.7961 66.4049 97.079 66.2453 97.3229 66.0264L97.0565 65.3459C96.8956 65.489 96.6794 65.6096 96.4182 65.7086C96.1577 65.8075 95.8636 65.8563 95.5419 65.8563C95.0592 65.8563 94.6595 65.7303 94.343 65.4725C94.0265 65.2147 93.855 64.8526 93.8161 64.391H97.6118C97.65 64.2216 97.6672 64.029 97.6672 63.8041C97.6672 63.4698 97.6058 63.1678 97.4838 62.8935C97.3702 62.6272 97.204 62.3865 96.9952 62.1859C96.7843 61.9865 96.5353 61.8315 96.2633 61.7303C95.9784 61.6198 95.6753 61.5639 95.3697 61.5654C94.9589 61.5654 94.5982 61.6366 94.2823 61.7685C93.9835 61.8938 93.7134 62.0787 93.4884 62.3119C93.2698 62.5437 93.1016 62.8183 92.9945 63.1184C92.8776 63.4381 92.8193 63.7763 92.8224 64.1167C92.8224 64.5012 92.889 64.852 93.011 65.1652C93.1336 65.4778 93.3163 65.7468 93.5438 65.9717C93.7713 66.1965 94.0489 66.3667 94.3767 66.4873C94.7273 66.612 95.0972 66.6734 95.4693 66.6687C95.797 66.6687 96.13 66.6133 96.4631 66.5091ZM94.2382 62.7451C94.5098 62.4985 94.8706 62.3778 95.3256 62.3778C95.7588 62.3778 96.0971 62.4985 96.347 62.7234C96.5963 62.9542 96.7295 63.272 96.7519 63.6782H93.7555C93.7978 63.3189 93.9693 62.9872 94.2382 62.7451ZM98.0945 61.6755H99.2043L100.896 64.0297L99.0876 66.5586H98.0114L99.9085 64.029L98.0945 61.6749V61.6755ZM101.113 61.6755H101.99V66.5586H101.113V61.6755ZM105.125 66.5586L103.194 64.029L104.997 61.6749H103.909L102.206 64.029L104.037 66.5586H105.125ZM109.131 66.5091C109.464 66.4049 109.747 66.2453 109.991 66.0264L109.725 65.3459C109.564 65.489 109.348 65.6096 109.087 65.7086C108.826 65.8075 108.532 65.8563 108.21 65.8563C107.727 65.8563 107.328 65.7303 107.011 65.4725C106.695 65.2147 106.523 64.8526 106.484 64.391H110.28C110.319 64.2216 110.335 64.029 110.335 63.8041C110.335 63.4698 110.275 63.1678 110.152 62.8935C110.038 62.6273 109.872 62.3867 109.664 62.1859C109.453 61.9864 109.204 61.8315 108.931 61.7303C108.647 61.6197 108.343 61.5638 108.038 61.5654C107.628 61.5654 107.267 61.6366 106.951 61.7685C106.652 61.894 106.382 62.0789 106.157 62.3119C105.938 62.5433 105.77 62.818 105.663 63.1184C105.546 63.438 105.488 63.7763 105.491 64.1167C105.491 64.5012 105.558 64.852 105.68 65.1652C105.802 65.4778 105.985 65.7468 106.213 65.9717C106.44 66.1965 106.717 66.3667 107.045 66.4873C107.396 66.612 107.766 66.6734 108.138 66.6687C108.475 66.6662 108.81 66.6124 109.131 66.5091ZM106.906 62.7451C107.179 62.4985 107.539 62.3778 107.994 62.3778C108.422 62.3778 108.765 62.4985 109.015 62.7234C109.265 62.9542 109.398 63.272 109.42 63.6782H106.424C106.466 63.3189 106.638 62.9872 106.906 62.7451ZM113.893 60.0349C113.377 60.0349 113.094 59.7494 113.05 59.179H112.223C112.223 59.3979 112.262 59.5957 112.333 59.7823C112.406 59.9689 112.511 60.1279 112.65 60.2597C112.788 60.3916 112.966 60.4958 113.172 60.5776C113.377 60.66 113.615 60.6983 113.887 60.6983C114.137 60.6983 114.359 60.66 114.559 60.5776C114.759 60.5011 114.925 60.3916 115.069 60.2597C115.208 60.1279 115.319 59.9689 115.396 59.7823C115.474 59.5957 115.513 59.3979 115.513 59.179H114.692C114.653 59.7494 114.381 60.0349 113.893 60.0349ZM111.523 61.6749V66.5586H112.4L115.252 62.9205V66.5586H116.129V61.6749H115.252L112.4 65.3129V61.6749H111.523Z" fill="black"/>
</g>
<defs>
<clipPath id="clip0_266_3157">
<rect width="157.602" height="79.1308" fill="white" transform="translate(0.199219 0.794556)"/>
</clipPath>
</defs>
</svg>
