<svg width="90" height="26" viewBox="0 0 90 26" fill="none" xmlns="http://www.w3.org/2000/svg">
<path fill-rule="evenodd" clip-rule="evenodd" d="M8.67123 0.777099C9.46764 0.772334 11.8345 0.55916 12.8371 3.94282C13.5124 6.22208 14.5882 9.95563 16.0644 15.1435H16.6656C18.2487 9.67409 19.3362 5.94054 19.9281 3.94282C20.9411 0.523914 23.4737 0.777166 24.4867 0.777166L32.3023 0.777175V25.0893H24.3364V10.7618H23.8022L19.3617 25.0893H13.3684L8.92777 10.7511H8.3936V25.0893H0.427734V0.777175L8.67123 0.777099ZM43.7411 0.777175V15.1154H44.3766L49.7781 3.32518C50.8267 0.978892 53.0614 0.777175 53.0614 0.777175H60.77V25.0894H52.6378V10.7511H52.0023L46.7067 22.5414C45.6581 24.877 43.3174 25.0894 43.3174 25.0894H35.6089V0.777175H43.7411ZM88.8786 12.3305C87.7443 15.545 84.1819 17.8471 80.2379 17.8471H71.7097V25.0894H63.9764V12.3305H88.8786Z" fill="black"/>
<path fill-rule="evenodd" clip-rule="evenodd" d="M80.6123 0.7771H63.5723C63.9778 6.18982 68.6391 10.8235 73.4645 10.8235H89.4174C90.338 6.32485 87.1688 0.7771 80.6123 0.7771Z" fill="black"/>
</svg>
