<svg width="55" height="19" viewBox="0 0 55 19" fill="none" xmlns="http://www.w3.org/2000/svg">
<path d="M23.9337 17.9574H19.5312L22.2848 0.734375H26.687L23.9337 17.9574Z" fill="white"/>
<path d="M39.8935 1.15561C39.0252 0.807132 37.6479 0.422363 35.9449 0.422363C31.5974 0.422363 28.5359 2.7675 28.5171 6.12034C28.481 8.59406 30.7091 9.96802 32.3755 10.7928C34.0787 11.6357 34.6577 12.1858 34.6577 12.9371C34.6404 14.0909 33.2814 14.6227 32.0139 14.6227C30.2562 14.6227 29.3145 14.3485 27.8833 13.7066L27.3036 13.4314L26.6875 17.2976C27.72 17.7735 29.6224 18.1957 31.5974 18.2142C36.2167 18.2142 39.224 15.9054 39.2597 12.3324C39.2772 10.3718 38.1007 8.86949 35.5643 7.64188C34.0245 6.85384 33.0816 6.32247 33.0816 5.51616C33.0996 4.78315 33.8791 4.03237 35.6173 4.03237C37.0485 3.99559 38.1 4.34359 38.8966 4.69183L39.2948 4.87472L39.8935 1.15561Z" fill="white"/>
<path d="M45.7448 11.8559C46.1074 10.8664 47.5025 7.03702 47.5025 7.03702C47.4842 7.07379 47.8643 6.02932 48.0817 5.38812L48.3894 6.87216C48.3894 6.87216 49.2231 10.9948 49.4041 11.8559C48.7161 11.8559 46.6144 11.8559 45.7448 11.8559ZM51.1791 0.734375H47.7738C46.7237 0.734375 45.9259 1.0456 45.4728 2.16337L38.9336 17.9571H43.5529C43.5529 17.9571 44.3134 15.8314 44.4769 15.3736C44.9836 15.3736 49.4773 15.3736 50.1292 15.3736C50.2556 15.9783 50.6545 17.9571 50.6545 17.9571H54.7307L51.1791 0.734375Z" fill="white"/>
<path d="M15.8555 0.734375L11.5441 12.4788L11.073 10.0969C10.2759 7.34849 7.77602 4.3624 4.98633 2.87763L8.93543 17.9391H13.5909L20.5107 0.734375H15.8555Z" fill="white"/>
<path d="M7.54028 0.734375H0.457228L0.384766 1.08237C5.90999 2.51161 9.56924 5.95675 11.0727 10.0976L9.53289 2.18213C9.27939 1.08213 8.50035 0.77066 7.54028 0.734375Z" fill="white"/>
</svg>
